<svg width="772" height="128" viewBox="0 0 772 128" fill="none" xmlns="http://www.w3.org/2000/svg">
<g clip-path="url(#clip0_10_2195)">
<rect width="772" height="128" rx="24" fill="#3D4966"/>
<path d="M20.4265 40.2861L5.60573 40.2861C0.694549 40.2861 -3.28675 36.3048 -3.28675 31.3937L-3.28675 16.5729" stroke="#242E49" stroke-width="4"/>
<path d="M20.4265 135.14L5.60573 135.14C0.694549 135.14 -3.28675 131.158 -3.28675 126.247L-3.28675 111.426" stroke="#242E49" stroke-width="4"/>
<path d="M70.8172 40.2861H55.9964C51.0852 40.2861 47.1039 44.2674 47.1039 49.1786V63.9994" stroke="#242E49" stroke-width="4"/>
<path d="M23.3907 40.2861L38.2115 40.2861C43.1227 40.2861 47.1039 36.3048 47.1039 31.3937L47.1039 16.5729" stroke="#242E49" stroke-width="4"/>
<path d="M23.3907 135.14L38.2115 135.14C43.1227 135.14 47.1039 131.158 47.1039 126.247L47.1039 111.426" stroke="#242E49" stroke-width="4"/>
<path d="M73.7814 40.2861H88.6022C93.5133 40.2861 97.4946 44.2674 97.4946 49.1786V63.9994" stroke="#242E49" stroke-width="4"/>
<path d="M174.563 40.2861H189.384C194.295 40.2861 198.276 44.2674 198.276 49.1786V63.9994" stroke="#242E49" stroke-width="4"/>
<path d="M275.344 40.2861H290.165C295.076 40.2861 299.057 44.2674 299.057 49.1786V63.9994" stroke="#242E49" stroke-width="4"/>
<path d="M121.208 40.2861L106.387 40.2861C101.476 40.2861 97.4946 36.3048 97.4946 31.3937L97.4946 16.5729" stroke="#242E49" stroke-width="4"/>
<path d="M121.208 135.14L106.387 135.14C101.476 135.14 97.4946 131.158 97.4946 126.247L97.4946 111.426" stroke="#242E49" stroke-width="4"/>
<path d="M221.989 40.2861L207.168 40.2861C202.257 40.2861 198.276 36.3048 198.276 31.3937L198.276 16.5729" stroke="#242E49" stroke-width="4"/>
<path d="M221.989 135.14L207.168 135.14C202.257 135.14 198.276 131.158 198.276 126.247L198.276 111.426" stroke="#242E49" stroke-width="4"/>
<path d="M322.771 40.2861L307.95 40.2861C303.039 40.2861 299.057 36.3048 299.057 31.3937L299.057 16.5729" stroke="#242E49" stroke-width="4"/>
<path d="M322.771 135.14L307.95 135.14C303.039 135.14 299.057 131.158 299.057 126.247L299.057 111.426" stroke="#242E49" stroke-width="4"/>
<path d="M171.599 40.2861H156.778C151.867 40.2861 147.885 44.2674 147.885 49.1786V63.9994" stroke="#242E49" stroke-width="4"/>
<path d="M272.38 40.2861H257.559C252.648 40.2861 248.667 44.2674 248.667 49.1786V63.9994" stroke="#242E49" stroke-width="4"/>
<path d="M373.161 40.2861H358.34C353.429 40.2861 349.448 44.2674 349.448 49.1786V63.9994" stroke="#242E49" stroke-width="4"/>
<path d="M124.172 40.2861L138.993 40.2861C143.904 40.2861 147.885 36.3048 147.885 31.3937L147.885 16.5729" stroke="#242E49" stroke-width="4"/>
<path d="M124.172 135.14L138.993 135.14C143.904 135.14 147.885 131.158 147.885 126.247L147.885 111.426" stroke="#242E49" stroke-width="4"/>
<path d="M224.953 40.2861L239.774 40.2861C244.685 40.2861 248.667 36.3048 248.667 31.3937L248.667 16.5729" stroke="#242E49" stroke-width="4"/>
<path d="M224.953 135.14L239.774 135.14C244.685 135.14 248.667 131.158 248.667 126.247L248.667 111.426" stroke="#242E49" stroke-width="4"/>
<path d="M325.735 40.2861L340.556 40.2861C345.467 40.2861 349.448 36.3048 349.448 31.3937L349.448 16.5729" stroke="#242E49" stroke-width="4"/>
<path d="M325.735 135.14L340.556 135.14C345.467 135.14 349.448 131.158 349.448 126.247L349.448 111.426" stroke="#242E49" stroke-width="4"/>
<path d="M-3.28674 -7.13965H11.534C16.4452 -7.13965 20.4265 -3.15835 20.4265 1.75282V16.5736" stroke="#242E49" stroke-width="4"/>
<path d="M-3.28674 87.7129H11.534C16.4452 87.7129 20.4265 91.6942 20.4265 96.6054V111.426" stroke="#242E49" stroke-width="4"/>
<path d="M44.1398 87.7129L29.319 87.7129C24.4078 87.7129 20.4265 83.7316 20.4265 78.8204L20.4265 63.9996" stroke="#242E49" stroke-width="4"/>
<path d="M94.5305 -7.13965H79.7097C74.7985 -7.13965 70.8172 -3.15835 70.8172 1.75282V16.5736" stroke="#242E49" stroke-width="4"/>
<path d="M94.5305 87.7129H79.7097C74.7985 87.7129 70.8172 91.6942 70.8172 96.6054V111.426" stroke="#242E49" stroke-width="4"/>
<path d="M47.1039 87.7129L61.9247 87.7129C66.8359 87.7129 70.8172 83.7316 70.8172 78.8204L70.8172 63.9996" stroke="#242E49" stroke-width="4"/>
<path d="M97.4946 -7.13965H112.315C117.227 -7.13965 121.208 -3.15835 121.208 1.75282V16.5736" stroke="#242E49" stroke-width="4"/>
<path d="M97.4946 87.7129H112.315C117.227 87.7129 121.208 91.6942 121.208 96.6054V111.426" stroke="#242E49" stroke-width="4"/>
<path d="M198.276 -7.13965H213.097C218.008 -7.13965 221.989 -3.15835 221.989 1.75282V16.5736" stroke="#242E49" stroke-width="4"/>
<path d="M198.276 87.7129H213.097C218.008 87.7129 221.989 91.6942 221.989 96.6054V111.426" stroke="#242E49" stroke-width="4"/>
<path d="M299.057 -7.13965H313.878C318.789 -7.13965 322.771 -3.15835 322.771 1.75282V16.5736" stroke="#242E49" stroke-width="4"/>
<path d="M299.057 87.7129H313.878C318.789 87.7129 322.771 91.6942 322.771 96.6054V111.426" stroke="#242E49" stroke-width="4"/>
<path d="M144.921 87.7129L130.1 87.7129C125.189 87.7129 121.208 83.7316 121.208 78.8204L121.208 63.9996" stroke="#242E49" stroke-width="4"/>
<path d="M245.703 87.7129L230.882 87.7129C225.971 87.7129 221.989 83.7316 221.989 78.8204L221.989 63.9996" stroke="#242E49" stroke-width="4"/>
<path d="M346.484 87.7129L331.663 87.7129C326.752 87.7129 322.771 83.7316 322.771 78.8204L322.771 63.9996" stroke="#242E49" stroke-width="4"/>
<path d="M195.312 -7.13965H180.491C175.58 -7.13965 171.599 -3.15835 171.599 1.75282V16.5736" stroke="#242E49" stroke-width="4"/>
<path d="M195.312 87.7129H180.491C175.58 87.7129 171.599 91.6942 171.599 96.6054V111.426" stroke="#242E49" stroke-width="4"/>
<path d="M296.093 -7.13965H281.272C276.361 -7.13965 272.38 -3.15835 272.38 1.75282V16.5736" stroke="#242E49" stroke-width="4"/>
<path d="M296.093 87.7129H281.272C276.361 87.7129 272.38 91.6942 272.38 96.6054V111.426" stroke="#242E49" stroke-width="4"/>
<path d="M396.875 -7.13965H382.054C377.143 -7.13965 373.161 -3.15835 373.161 1.75282V16.5736" stroke="#242E49" stroke-width="4"/>
<path d="M396.875 87.7129H382.054C377.143 87.7129 373.161 91.6942 373.161 96.6054V111.426" stroke="#242E49" stroke-width="4"/>
<path d="M147.885 87.7129L162.706 87.7129C167.617 87.7129 171.599 83.7316 171.599 78.8204L171.599 63.9996" stroke="#242E49" stroke-width="4"/>
<path d="M248.667 87.7129L263.487 87.7129C268.399 87.7129 272.38 83.7316 272.38 78.8204L272.38 63.9996" stroke="#242E49" stroke-width="4"/>
<path d="M349.448 87.7129L364.269 87.7129C369.18 87.7129 373.161 83.7316 373.161 78.8204L373.161 63.9996" stroke="#242E49" stroke-width="4"/>
<path d="M376.125 40.2861H390.946C395.857 40.2861 399.839 44.2674 399.839 49.1786V63.9994" stroke="#242E49" stroke-width="4"/>
<path d="M423.552 40.2861L408.731 40.2861C403.82 40.2861 399.839 36.3048 399.839 31.3937L399.839 16.5729" stroke="#242E49" stroke-width="4"/>
<path d="M423.552 135.14L408.731 135.14C403.82 135.14 399.839 131.158 399.839 126.247L399.839 111.426" stroke="#242E49" stroke-width="4"/>
<path d="M473.943 40.2861H459.122C454.211 40.2861 450.229 44.2674 450.229 49.1786V63.9994" stroke="#242E49" stroke-width="4"/>
<path d="M426.516 40.2861L441.337 40.2861C446.248 40.2861 450.229 36.3048 450.229 31.3937L450.229 16.5729" stroke="#242E49" stroke-width="4"/>
<path d="M426.516 135.14L441.337 135.14C446.248 135.14 450.229 131.158 450.229 126.247L450.229 111.426" stroke="#242E49" stroke-width="4"/>
<path d="M476.907 40.2861H491.728C496.639 40.2861 500.62 44.2674 500.62 49.1786V63.9994" stroke="#242E49" stroke-width="4"/>
<path d="M577.688 40.2861H592.509C597.42 40.2861 601.401 44.2674 601.401 49.1786V63.9994" stroke="#242E49" stroke-width="4"/>
<path d="M678.47 40.2861H693.29C698.201 40.2861 702.183 44.2674 702.183 49.1786V63.9994" stroke="#242E49" stroke-width="4"/>
<path d="M524.333 40.2861L509.513 40.2861C504.601 40.2861 500.62 36.3048 500.62 31.3937L500.62 16.5729" stroke="#242E49" stroke-width="4"/>
<path d="M524.333 135.14L509.513 135.14C504.601 135.14 500.62 131.158 500.62 126.247L500.62 111.426" stroke="#242E49" stroke-width="4"/>
<path d="M625.115 40.2861L610.294 40.2861C605.383 40.2861 601.401 36.3048 601.401 31.3937L601.401 16.5729" stroke="#242E49" stroke-width="4"/>
<path d="M625.115 135.14L610.294 135.14C605.383 135.14 601.401 131.158 601.401 126.247L601.401 111.426" stroke="#242E49" stroke-width="4"/>
<path d="M725.896 40.2861L711.075 40.2861C706.164 40.2861 702.183 36.3048 702.183 31.3937L702.183 16.5729" stroke="#242E49" stroke-width="4"/>
<path d="M725.896 135.14L711.075 135.14C706.164 135.14 702.183 131.158 702.183 126.247L702.183 111.426" stroke="#242E49" stroke-width="4"/>
<path d="M574.724 40.2861H559.903C554.992 40.2861 551.011 44.2674 551.011 49.1786V63.9994" stroke="#242E49" stroke-width="4"/>
<path d="M675.505 40.2861H660.685C655.773 40.2861 651.792 44.2674 651.792 49.1786V63.9994" stroke="#242E49" stroke-width="4"/>
<path d="M776.287 40.2861H761.466C756.555 40.2861 752.573 44.2674 752.573 49.1786V63.9994" stroke="#242E49" stroke-width="4"/>
<path d="M527.297 40.2861L542.118 40.2861C547.029 40.2861 551.011 36.3048 551.011 31.3937L551.011 16.5729" stroke="#242E49" stroke-width="4"/>
<path d="M527.297 135.14L542.118 135.14C547.029 135.14 551.011 131.158 551.011 126.247L551.011 111.426" stroke="#242E49" stroke-width="4"/>
<path d="M628.079 40.2861L642.9 40.2861C647.811 40.2861 651.792 36.3048 651.792 31.3937L651.792 16.5729" stroke="#242E49" stroke-width="4"/>
<path d="M628.079 135.14L642.9 135.14C647.811 135.14 651.792 131.158 651.792 126.247L651.792 111.426" stroke="#242E49" stroke-width="4"/>
<path d="M728.86 40.2861L743.681 40.2861C748.592 40.2861 752.573 36.3048 752.573 31.3937L752.573 16.5729" stroke="#242E49" stroke-width="4"/>
<path d="M728.86 135.14L743.681 135.14C748.592 135.14 752.573 131.158 752.573 126.247L752.573 111.426" stroke="#242E49" stroke-width="4"/>
<path d="M399.839 -7.13965H414.66C419.571 -7.13965 423.552 -3.15835 423.552 1.75282V16.5736" stroke="#242E49" stroke-width="4"/>
<path d="M399.839 87.7129H414.66C419.571 87.7129 423.552 91.6942 423.552 96.6054V111.426" stroke="#242E49" stroke-width="4"/>
<path d="M447.265 87.7129L432.444 87.7129C427.533 87.7129 423.552 83.7316 423.552 78.8204L423.552 63.9996" stroke="#242E49" stroke-width="4"/>
<path d="M497.656 -7.13965H482.835C477.924 -7.13965 473.943 -3.15835 473.943 1.75282V16.5736" stroke="#242E49" stroke-width="4"/>
<path d="M497.656 87.7129H482.835C477.924 87.7129 473.943 91.6942 473.943 96.6054V111.426" stroke="#242E49" stroke-width="4"/>
<path d="M450.229 87.7129L465.05 87.7129C469.961 87.7129 473.943 83.7316 473.943 78.8204L473.943 63.9996" stroke="#242E49" stroke-width="4"/>
<path d="M500.62 -7.13965H515.441C520.352 -7.13965 524.333 -3.15835 524.333 1.75282V16.5736" stroke="#242E49" stroke-width="4"/>
<path d="M500.62 87.7129H515.441C520.352 87.7129 524.333 91.6942 524.333 96.6054V111.426" stroke="#242E49" stroke-width="4"/>
<path d="M601.401 -7.13965H616.222C621.133 -7.13965 625.115 -3.15835 625.115 1.75282V16.5736" stroke="#242E49" stroke-width="4"/>
<path d="M601.401 87.7129H616.222C621.133 87.7129 625.115 91.6942 625.115 96.6054V111.426" stroke="#242E49" stroke-width="4"/>
<path d="M702.183 -7.13965H717.004C721.915 -7.13965 725.896 -3.15835 725.896 1.75282V16.5736" stroke="#242E49" stroke-width="4"/>
<path d="M702.183 87.7129H717.004C721.915 87.7129 725.896 91.6942 725.896 96.6054V111.426" stroke="#242E49" stroke-width="4"/>
<path d="M548.047 87.7129L533.226 87.7129C528.315 87.7129 524.333 83.7316 524.333 78.8204L524.333 63.9996" stroke="#242E49" stroke-width="4"/>
<path d="M648.828 87.7129L634.007 87.7129C629.096 87.7129 625.115 83.7316 625.115 78.8204L625.115 63.9996" stroke="#242E49" stroke-width="4"/>
<path d="M749.609 87.7129L734.788 87.7129C729.877 87.7129 725.896 83.7316 725.896 78.8204L725.896 63.9996" stroke="#242E49" stroke-width="4"/>
<path d="M598.437 -7.13965H583.616C578.705 -7.13965 574.724 -3.15835 574.724 1.75282V16.5736" stroke="#242E49" stroke-width="4"/>
<path d="M598.437 87.7129H583.616C578.705 87.7129 574.724 91.6942 574.724 96.6054V111.426" stroke="#242E49" stroke-width="4"/>
<path d="M699.219 -7.13965H684.398C679.487 -7.13965 675.505 -3.15835 675.505 1.75282V16.5736" stroke="#242E49" stroke-width="4"/>
<path d="M699.219 87.7129H684.398C679.487 87.7129 675.505 91.6942 675.505 96.6054V111.426" stroke="#242E49" stroke-width="4"/>
<path d="M551.011 87.7129L565.832 87.7129C570.743 87.7129 574.724 83.7316 574.724 78.8204L574.724 63.9996" stroke="#242E49" stroke-width="4"/>
<path d="M651.792 87.7129L666.613 87.7129C671.524 87.7129 675.505 83.7316 675.505 78.8204L675.505 63.9996" stroke="#242E49" stroke-width="4"/>
<path d="M752.573 87.7129L767.394 87.7129C772.305 87.7129 776.287 83.7316 776.287 78.8204L776.287 63.9996" stroke="#242E49" stroke-width="4"/>
<path d="M271.468 74L277.636 56.12H281.86L288.028 74H284.476L283.204 70.16H276.292L274.996 74H271.468ZM277.228 67.28H282.268L279.292 58.376H280.204L277.228 67.28ZM289.274 74V60.944H292.226V63.848L291.986 63.416C292.29 62.44 292.762 61.76 293.402 61.376C294.058 60.992 294.842 60.8 295.754 60.8H296.522V63.584H295.394C294.498 63.584 293.778 63.864 293.234 64.424C292.69 64.968 292.418 65.736 292.418 66.728V74H289.274ZM304.074 74.144C302.602 74.144 301.458 73.744 300.642 72.944C299.842 72.128 299.442 70.984 299.442 69.512V63.752H297.186V60.944H297.426C298.066 60.944 298.562 60.776 298.914 60.44C299.266 60.104 299.442 59.616 299.442 58.976V57.968H302.586V60.944H305.586V63.752H302.586V69.344C302.586 69.776 302.658 70.144 302.802 70.448C302.962 70.752 303.202 70.984 303.522 71.144C303.858 71.304 304.282 71.384 304.794 71.384C304.906 71.384 305.034 71.376 305.178 71.36C305.338 71.344 305.49 71.328 305.634 71.312V74C305.41 74.032 305.154 74.064 304.866 74.096C304.578 74.128 304.314 74.144 304.074 74.144ZM307.556 74V60.944H310.7V74H307.556ZM307.556 59.48V56.12H310.7V59.48H307.556ZM314.635 74V63.752H312.331V60.944H314.635V60.512C314.635 59.52 314.835 58.68 315.235 57.992C315.651 57.288 316.227 56.752 316.963 56.384C317.699 56.016 318.571 55.832 319.579 55.832C319.771 55.832 319.979 55.848 320.203 55.88C320.443 55.896 320.643 55.92 320.803 55.952V58.664C320.643 58.632 320.491 58.616 320.347 58.616C320.219 58.6 320.099 58.592 319.987 58.592C319.283 58.592 318.739 58.752 318.355 59.072C317.971 59.376 317.779 59.856 317.779 60.512V60.944H323.491V63.752H317.779V74H314.635ZM322.315 74V60.944H325.483V74H322.315ZM333.908 74.288C332.612 74.288 331.444 73.992 330.404 73.4C329.38 72.792 328.572 71.976 327.98 70.952C327.388 69.912 327.092 68.744 327.092 67.448C327.092 66.152 327.388 64.992 327.98 63.968C328.572 62.944 329.38 62.136 330.404 61.544C331.444 60.952 332.612 60.656 333.908 60.656C334.836 60.656 335.7 60.824 336.5 61.16C337.3 61.48 337.988 61.928 338.564 62.504C339.156 63.064 339.58 63.736 339.836 64.52L337.076 65.72C336.836 65.064 336.428 64.536 335.852 64.136C335.292 63.736 334.644 63.536 333.908 63.536C333.22 63.536 332.604 63.704 332.06 64.04C331.532 64.376 331.116 64.84 330.812 65.432C330.508 66.024 330.356 66.704 330.356 67.472C330.356 68.24 330.508 68.92 330.812 69.512C331.116 70.104 331.532 70.568 332.06 70.904C332.604 71.24 333.22 71.408 333.908 71.408C334.66 71.408 335.316 71.208 335.876 70.808C336.436 70.408 336.836 69.872 337.076 69.2L339.836 70.448C339.58 71.184 339.164 71.848 338.588 72.44C338.012 73.016 337.324 73.472 336.524 73.808C335.724 74.128 334.852 74.288 333.908 74.288ZM341.741 74V60.944H344.885V74H341.741ZM341.741 59.48V56.12H344.885V59.48H341.741ZM351.268 74.288C350.356 74.288 349.564 74.136 348.892 73.832C348.22 73.528 347.7 73.096 347.332 72.536C346.964 71.96 346.78 71.296 346.78 70.544C346.78 69.824 346.94 69.184 347.26 68.624C347.58 68.048 348.076 67.568 348.748 67.184C349.42 66.8 350.268 66.528 351.292 66.368L355.564 65.672V68.072L351.892 68.696C351.268 68.808 350.804 69.008 350.5 69.296C350.196 69.584 350.044 69.96 350.044 70.424C350.044 70.872 350.212 71.232 350.548 71.504C350.9 71.76 351.332 71.888 351.844 71.888C352.5 71.888 353.076 71.752 353.572 71.48C354.084 71.192 354.476 70.8 354.748 70.304C355.036 69.808 355.18 69.264 355.18 68.672V65.312C355.18 64.752 354.956 64.288 354.508 63.92C354.076 63.536 353.5 63.344 352.78 63.344C352.108 63.344 351.508 63.528 350.98 63.896C350.468 64.248 350.092 64.72 349.852 65.312L347.284 64.064C347.54 63.376 347.94 62.784 348.484 62.288C349.044 61.776 349.7 61.376 350.452 61.088C351.204 60.8 352.02 60.656 352.9 60.656C353.972 60.656 354.916 60.856 355.732 61.256C356.548 61.64 357.18 62.184 357.628 62.888C358.092 63.576 358.324 64.384 358.324 65.312V74H355.348V71.768L356.02 71.72C355.684 72.28 355.284 72.752 354.82 73.136C354.356 73.504 353.828 73.792 353.236 74C352.644 74.192 351.988 74.288 351.268 74.288ZM360.75 74V55.832H363.894V74H360.75ZM370.366 74V56.12H373.63V74H370.366ZM376.326 74V60.944H379.278V63.512L379.038 63.056C379.342 62.272 379.838 61.68 380.526 61.28C381.23 60.864 382.046 60.656 382.974 60.656C383.934 60.656 384.782 60.864 385.518 61.28C386.27 61.696 386.854 62.28 387.27 63.032C387.686 63.768 387.894 64.624 387.894 65.6V74H384.75V66.344C384.75 65.768 384.638 65.272 384.414 64.856C384.19 64.44 383.878 64.12 383.478 63.896C383.094 63.656 382.638 63.536 382.11 63.536C381.598 63.536 381.142 63.656 380.742 63.896C380.342 64.12 380.03 64.44 379.806 64.856C379.582 65.272 379.47 65.768 379.47 66.344V74H376.326ZM396.024 74.144C394.552 74.144 393.408 73.744 392.592 72.944C391.792 72.128 391.392 70.984 391.392 69.512V63.752H389.136V60.944H389.376C390.016 60.944 390.512 60.776 390.864 60.44C391.216 60.104 391.392 59.616 391.392 58.976V57.968H394.536V60.944H397.536V63.752H394.536V69.344C394.536 69.776 394.608 70.144 394.752 70.448C394.912 70.752 395.152 70.984 395.472 71.144C395.808 71.304 396.232 71.384 396.744 71.384C396.856 71.384 396.984 71.376 397.128 71.36C397.288 71.344 397.44 71.328 397.584 71.312V74C397.36 74.032 397.104 74.064 396.816 74.096C396.528 74.128 396.264 74.144 396.024 74.144ZM405.581 74.288C404.237 74.288 403.061 73.984 402.053 73.376C401.045 72.768 400.261 71.944 399.701 70.904C399.141 69.864 398.861 68.712 398.861 67.448C398.861 66.136 399.141 64.976 399.701 63.968C400.277 62.944 401.053 62.136 402.029 61.544C403.021 60.952 404.125 60.656 405.341 60.656C406.365 60.656 407.261 60.824 408.029 61.16C408.813 61.496 409.477 61.96 410.021 62.552C410.565 63.144 410.981 63.824 411.269 64.592C411.557 65.344 411.701 66.16 411.701 67.04C411.701 67.264 411.685 67.496 411.653 67.736C411.637 67.976 411.597 68.184 411.533 68.36H401.453V65.96H409.757L408.269 67.088C408.413 66.352 408.373 65.696 408.149 65.12C407.941 64.544 407.589 64.088 407.093 63.752C406.613 63.416 406.029 63.248 405.341 63.248C404.685 63.248 404.101 63.416 403.589 63.752C403.077 64.072 402.685 64.552 402.413 65.192C402.157 65.816 402.061 66.576 402.125 67.472C402.061 68.272 402.165 68.984 402.437 69.608C402.725 70.216 403.141 70.688 403.685 71.024C404.245 71.36 404.885 71.528 405.605 71.528C406.325 71.528 406.933 71.376 407.429 71.072C407.941 70.768 408.341 70.36 408.629 69.848L411.173 71.096C410.917 71.72 410.517 72.272 409.973 72.752C409.429 73.232 408.781 73.608 408.029 73.88C407.293 74.152 406.477 74.288 405.581 74.288ZM413.604 74V55.832H416.748V74H413.604ZM419.171 74V55.832H422.315V74H419.171ZM424.738 74V60.944H427.882V74H424.738ZM424.738 59.48V56.12H427.882V59.48H424.738ZM436.641 79.28C435.665 79.28 434.761 79.12 433.929 78.8C433.097 78.48 432.377 78.032 431.769 77.456C431.177 76.896 430.745 76.232 430.473 75.464L433.401 74.36C433.593 74.968 433.969 75.456 434.529 75.824C435.105 76.208 435.809 76.4 436.641 76.4C437.281 76.4 437.841 76.28 438.321 76.04C438.817 75.8 439.201 75.448 439.473 74.984C439.745 74.536 439.881 73.992 439.881 73.352V70.376L440.481 71.096C440.033 71.88 439.433 72.472 438.681 72.872C437.929 73.272 437.073 73.472 436.113 73.472C434.897 73.472 433.809 73.192 432.849 72.632C431.889 72.072 431.137 71.304 430.593 70.328C430.049 69.352 429.777 68.256 429.777 67.04C429.777 65.808 430.049 64.712 430.593 63.752C431.137 62.792 431.881 62.04 432.825 61.496C433.769 60.936 434.841 60.656 436.041 60.656C437.017 60.656 437.873 60.864 438.609 61.28C439.361 61.68 439.985 62.264 440.481 63.032L440.049 63.824V60.944H443.025V73.352C443.025 74.488 442.745 75.504 442.185 76.4C441.641 77.296 440.889 78 439.929 78.512C438.985 79.024 437.889 79.28 436.641 79.28ZM436.497 70.568C437.169 70.568 437.753 70.424 438.249 70.136C438.761 69.832 439.161 69.416 439.449 68.888C439.737 68.36 439.881 67.752 439.881 67.064C439.881 66.392 439.729 65.792 439.425 65.264C439.137 64.72 438.737 64.296 438.225 63.992C437.729 63.688 437.153 63.536 436.497 63.536C435.841 63.536 435.249 63.688 434.721 63.992C434.193 64.296 433.777 64.72 433.473 65.264C433.185 65.792 433.041 66.392 433.041 67.064C433.041 67.736 433.185 68.336 433.473 68.864C433.777 69.392 434.185 69.808 434.697 70.112C435.225 70.416 435.825 70.568 436.497 70.568ZM451.673 74.288C450.329 74.288 449.153 73.984 448.145 73.376C447.137 72.768 446.353 71.944 445.793 70.904C445.233 69.864 444.953 68.712 444.953 67.448C444.953 66.136 445.233 64.976 445.793 63.968C446.369 62.944 447.145 62.136 448.121 61.544C449.113 60.952 450.217 60.656 451.433 60.656C452.457 60.656 453.353 60.824 454.121 61.16C454.905 61.496 455.569 61.96 456.113 62.552C456.657 63.144 457.073 63.824 457.361 64.592C457.649 65.344 457.793 66.16 457.793 67.04C457.793 67.264 457.777 67.496 457.745 67.736C457.729 67.976 457.689 68.184 457.625 68.36H447.545V65.96H455.849L454.361 67.088C454.505 66.352 454.465 65.696 454.241 65.12C454.033 64.544 453.681 64.088 453.185 63.752C452.705 63.416 452.121 63.248 451.433 63.248C450.777 63.248 450.193 63.416 449.681 63.752C449.169 64.072 448.777 64.552 448.505 65.192C448.249 65.816 448.153 66.576 448.217 67.472C448.153 68.272 448.257 68.984 448.529 69.608C448.817 70.216 449.233 70.688 449.777 71.024C450.337 71.36 450.977 71.528 451.697 71.528C452.417 71.528 453.025 71.376 453.521 71.072C454.033 70.768 454.433 70.36 454.721 69.848L457.265 71.096C457.009 71.72 456.609 72.272 456.065 72.752C455.521 73.232 454.873 73.608 454.121 73.88C453.385 74.152 452.569 74.288 451.673 74.288ZM459.697 74V60.944H462.649V63.512L462.409 63.056C462.713 62.272 463.209 61.68 463.897 61.28C464.601 60.864 465.417 60.656 466.345 60.656C467.305 60.656 468.153 60.864 468.889 61.28C469.641 61.696 470.225 62.28 470.641 63.032C471.057 63.768 471.265 64.624 471.265 65.6V74H468.121V66.344C468.121 65.768 468.009 65.272 467.785 64.856C467.561 64.44 467.249 64.12 466.849 63.896C466.465 63.656 466.009 63.536 465.481 63.536C464.969 63.536 464.513 63.656 464.113 63.896C463.713 64.12 463.401 64.44 463.177 64.856C462.953 65.272 462.841 65.768 462.841 66.344V74H459.697ZM479.731 74.288C478.435 74.288 477.267 73.992 476.227 73.4C475.203 72.792 474.395 71.976 473.803 70.952C473.211 69.912 472.915 68.744 472.915 67.448C472.915 66.152 473.211 64.992 473.803 63.968C474.395 62.944 475.203 62.136 476.227 61.544C477.267 60.952 478.435 60.656 479.731 60.656C480.659 60.656 481.523 60.824 482.323 61.16C483.123 61.48 483.811 61.928 484.387 62.504C484.979 63.064 485.403 63.736 485.659 64.52L482.899 65.72C482.659 65.064 482.251 64.536 481.675 64.136C481.115 63.736 480.467 63.536 479.731 63.536C479.043 63.536 478.427 63.704 477.883 64.04C477.355 64.376 476.939 64.84 476.635 65.432C476.331 66.024 476.179 66.704 476.179 67.472C476.179 68.24 476.331 68.92 476.635 69.512C476.939 70.104 477.355 70.568 477.883 70.904C478.427 71.24 479.043 71.408 479.731 71.408C480.483 71.408 481.139 71.208 481.699 70.808C482.259 70.408 482.659 69.872 482.899 69.2L485.659 70.448C485.403 71.184 484.987 71.848 484.411 72.44C483.835 73.016 483.147 73.472 482.347 73.808C481.547 74.128 480.675 74.288 479.731 74.288ZM493.757 74.288C492.413 74.288 491.237 73.984 490.229 73.376C489.221 72.768 488.437 71.944 487.877 70.904C487.317 69.864 487.037 68.712 487.037 67.448C487.037 66.136 487.317 64.976 487.877 63.968C488.453 62.944 489.229 62.136 490.205 61.544C491.197 60.952 492.301 60.656 493.517 60.656C494.541 60.656 495.437 60.824 496.205 61.16C496.989 61.496 497.653 61.96 498.197 62.552C498.741 63.144 499.157 63.824 499.445 64.592C499.733 65.344 499.877 66.16 499.877 67.04C499.877 67.264 499.861 67.496 499.829 67.736C499.813 67.976 499.773 68.184 499.709 68.36H489.629V65.96H497.933L496.445 67.088C496.589 66.352 496.549 65.696 496.325 65.12C496.117 64.544 495.765 64.088 495.269 63.752C494.789 63.416 494.205 63.248 493.517 63.248C492.861 63.248 492.277 63.416 491.765 63.752C491.253 64.072 490.861 64.552 490.589 65.192C490.333 65.816 490.237 66.576 490.301 67.472C490.237 68.272 490.341 68.984 490.613 69.608C490.901 70.216 491.317 70.688 491.861 71.024C492.421 71.36 493.061 71.528 493.781 71.528C494.501 71.528 495.109 71.376 495.605 71.072C496.117 70.768 496.517 70.36 496.805 69.848L499.349 71.096C499.093 71.72 498.693 72.272 498.149 72.752C497.605 73.232 496.957 73.608 496.205 73.88C495.469 74.152 494.653 74.288 493.757 74.288Z" fill="white"/>
</g>
<defs>
<clipPath id="clip0_10_2195">
<rect width="772" height="128" rx="24" fill="white"/>
</clipPath>
</defs>
</svg>
