<svg width="24" height="24" viewBox="0 0 24 24" fill="none" xmlns="http://www.w3.org/2000/svg">
<path d="M19.9865 10.8531L19.4865 9.9871L19.9865 10.8531ZM20.5392 8.79044L21.4052 8.29044L20.5392 8.79044ZM19.7221 11.0057L19.2221 10.1397L19.7221 11.0057ZM19.7222 12.9944L19.2222 13.8604L19.7222 12.9944ZM20.5392 15.2097L19.6731 14.7097L20.5392 15.2097ZM19.9865 13.147L19.4865 14.013L19.9865 13.147ZM16.9267 18.3086L16.4267 19.1746L16.9267 18.3086ZM19.0837 17.7306L18.2176 17.2306L19.0837 17.7306ZM16.5942 18.1166L17.0942 17.2506L16.5942 18.1166ZM4.85725 17.6286L3.99122 18.1286L4.85725 17.6286ZM7.17524 18.2497L6.67524 17.3837L7.17524 18.2497ZM3.59134 15.436L2.72532 15.936L3.59134 15.436ZM4.79026 12.6984L4.29026 11.8324L4.79026 12.6984ZM4.79034 11.3017L4.29034 12.1677L4.79034 11.3017ZM7.17518 5.75039L7.67518 4.88436L7.17518 5.75039ZM7.66294 6.032L8.16294 5.16597L7.66294 6.032ZM16.5943 5.88338L16.0943 5.01736L16.5943 5.88338ZM7.66307 17.968L7.16307 17.102L7.66307 17.968ZM16.9267 5.69146L16.4267 4.82544L16.9267 5.69146ZM10.7128 4H13.431V2H10.7128V4ZM9.99996 5.259V4.71287H7.99996V5.259H9.99996ZM6.67518 6.61641L7.16294 6.89802L8.16294 5.16597L7.67518 4.88436L6.67518 6.61641ZM4.45737 9.06413L5.72331 6.87146L3.99126 5.87146L2.72532 8.06413L4.45737 9.06413ZM5.29034 10.4357L4.73969 10.1178L3.73969 11.8498L4.29034 12.1677L5.29034 10.4357ZM4.73968 13.8823L5.29026 13.5645L4.29026 11.8324L3.73968 12.1503L4.73968 13.8823ZM5.72327 17.1286L4.45737 14.936L2.72532 15.936L3.99122 18.1286L5.72327 17.1286ZM7.16307 17.102L6.67524 17.3837L7.67524 19.1157L8.16307 18.8341L7.16307 17.102ZM9.99996 19.2871V18.741H7.99996V19.2871H9.99996ZM13.431 20H10.7128V22H13.431V20ZM14 19.036V19.431H16V19.036H14ZM17.4267 17.4426L17.0942 17.2506L16.0942 18.9827L16.4267 19.1746L17.4267 17.4426ZM19.6731 14.7097L18.2176 17.2306L19.9497 18.2306L21.4052 15.7097L19.6731 14.7097ZM19.2222 13.8604L19.4865 14.013L20.4865 12.281L20.2222 12.1284L19.2222 13.8604ZM19.4865 9.9871L19.2221 10.1397L20.2221 11.8718L20.4865 11.7192L19.4865 9.9871ZM18.2176 6.76941L19.6731 9.29044L21.4052 8.29044L19.9497 5.76941L18.2176 6.76941ZM17.0943 6.74941L17.4267 6.55749L16.4267 4.82544L16.0943 5.01736L17.0943 6.74941ZM14 4.56898V4.96398H16V4.56898H14ZM16.048 4.99661C16.0222 4.98236 16.007 4.96525 16.0006 4.95516C15.9953 4.94691 16 4.95051 16 4.96398H14C14 5.75975 14.474 6.41128 15.0794 6.74641L16.048 4.99661ZM20.4865 11.7192C21.687 11.026 22.0983 9.49095 21.4052 8.29044L19.6731 9.29044C19.814 9.53436 19.7304 9.84627 19.4865 9.9871L20.4865 11.7192ZM20.1785 12C20.1785 11.9555 20.1895 11.92 20.2013 11.8977C20.2122 11.8773 20.2208 11.8725 20.2221 11.8718L19.2221 10.1397C18.5191 10.5456 18.1785 11.2917 18.1785 12H20.1785ZM20.2222 12.1284C20.2209 12.1276 20.2122 12.1228 20.2014 12.1024C20.1895 12.0801 20.1785 12.0446 20.1785 12H18.1785C18.1785 12.7084 18.5191 13.4545 19.2222 13.8604L20.2222 12.1284ZM21.4052 15.7097C22.0983 14.5092 21.687 12.9741 20.4865 12.281L19.4865 14.013C19.7304 14.1538 19.814 14.4657 19.6731 14.7097L21.4052 15.7097ZM16.4267 19.1746C17.6602 19.8868 19.2375 19.4642 19.9497 18.2306L18.2176 17.2306C18.0577 17.5076 17.7036 17.6025 17.4267 17.4426L16.4267 19.1746ZM16.0479 19.0034C16.0719 18.9901 16.0916 18.987 16.1009 18.9868C16.105 18.9867 16.1058 18.9872 16.1038 18.9867C16.1015 18.9861 16.0979 18.9848 16.0942 18.9827L17.0942 17.2506C16.4337 16.8693 15.6668 16.9284 15.0793 17.2536L16.0479 19.0034ZM16 19.036C16 19.0495 15.9953 19.0531 16.0006 19.0448C16.007 19.0348 16.0222 19.0177 16.0479 19.0034L15.0793 17.2536C14.4739 17.5887 14 18.2402 14 19.036H16ZM13.431 22C14.8498 22 16 20.8498 16 19.431H14C14 19.7453 13.7452 20 13.431 20V22ZM7.99996 19.2871C7.99996 20.7854 9.21455 22 10.7128 22V20C10.3191 20 9.99996 19.6808 9.99996 19.2871H7.99996ZM8.04257 18.8492C8.03892 18.8469 8.03056 18.841 8.02139 18.8257C8.01137 18.809 7.99996 18.7795 7.99996 18.741H9.99996C9.99996 18.0426 9.60527 17.457 9.07783 17.1379L8.04257 18.8492ZM3.99122 18.1286C4.73594 19.4185 6.38533 19.8604 7.67524 19.1157L6.67524 17.3837C6.34192 17.5761 5.91571 17.4619 5.72327 17.1286L3.99122 18.1286ZM3.73968 12.1503C2.41419 12.9156 1.96004 14.6105 2.72532 15.936L4.45737 14.936C4.24438 14.5671 4.37077 14.0953 4.73968 13.8823L3.73968 12.1503ZM4.17847 12C4.17847 11.965 4.19707 11.8862 4.29026 11.8324L5.29026 13.5645C5.8775 13.2254 6.17847 12.6054 6.17847 12H4.17847ZM4.29034 12.1677C4.1971 12.1139 4.17847 12.035 4.17847 12H6.17847C6.17847 11.3946 5.87752 10.7747 5.29034 10.4357L4.29034 12.1677ZM2.72532 8.06413C1.96004 9.38963 2.41419 11.0845 3.73969 11.8498L4.73969 10.1178C4.37078 9.90477 4.24438 9.43304 4.45737 9.06413L2.72532 8.06413ZM7.67518 4.88436C6.38531 4.13965 4.73596 4.5816 3.99126 5.87146L5.72331 6.87146C5.91573 6.53818 6.3419 6.42399 6.67518 6.61641L7.67518 4.88436ZM8.04252 5.15087C8.04663 5.14839 8.05692 5.1433 8.07627 5.14259C8.09744 5.14182 8.12967 5.14676 8.16294 5.16597L7.16294 6.89802C7.79162 7.26099 8.5264 7.19567 9.0778 6.86207L8.04252 5.15087ZM7.99996 5.259C7.99996 5.22042 8.01137 5.19098 8.02138 5.17429C8.03054 5.15901 8.03889 5.15307 8.04252 5.15087L9.0778 6.86207C9.60525 6.54297 9.99996 5.95738 9.99996 5.259H7.99996ZM16.0943 5.01736C16.098 5.01521 16.1016 5.01393 16.1039 5.01337C16.1059 5.01287 16.1051 5.01337 16.101 5.01328C16.0917 5.01309 16.072 5.00991 16.048 4.99661L15.0794 6.74641C15.6668 7.0716 16.4338 7.13073 17.0943 6.74941L16.0943 5.01736ZM13.431 4C13.7452 4 14 4.25474 14 4.56898H16C16 3.15017 14.8498 2 13.431 2V4ZM8.16307 18.8341C8.12979 18.8533 8.09754 18.8582 8.07635 18.8574C8.05699 18.8567 8.04669 18.8516 8.04257 18.8492L9.07783 17.1379C8.52646 16.8044 7.79171 16.7391 7.16307 17.102L8.16307 18.8341ZM19.9497 5.76941C19.2375 4.5359 17.6602 4.11327 16.4267 4.82544L17.4267 6.55749C17.7036 6.39761 18.0577 6.49249 18.2176 6.76941L19.9497 5.76941ZM10.7128 2C9.21455 2 7.99996 3.21459 7.99996 4.71287H9.99996C9.99996 4.31916 10.3191 4 10.7128 4V2Z" fill="white"/>
<rect x="9" y="9" width="6" height="6" rx="3" stroke="white" stroke-width="2"/>
</svg>
