<svg width="24" height="24" viewBox="0 0 24 24" fill="none" xmlns="http://www.w3.org/2000/svg">
<path fill-rule="evenodd" clip-rule="evenodd" d="M11.9231 2C8.16819 2 5.11146 4.98938 5.003 8.71806L3.12804 11.843C2.29441 13.2324 3.29521 15 4.9155 15C4.96218 15 5.00003 15.0378 5.00003 15.0845V16.5C5.00003 17.8807 6.11931 19 7.50003 19H8.50003C8.77617 19 9.00003 19.2239 9.00003 19.5V22H17V18.6054C19.4632 17.2049 21 14.5832 21 11.7281V10C21 5.58172 17.4183 2 13 2H11.9231ZM12 9V7H14V9H16V11H14V13H12V11H10V9H12Z" fill="#0F67FE"/>
</svg>
