<svg width="33" height="32" viewBox="0 0 33 32" fill="none" xmlns="http://www.w3.org/2000/svg">
<path fill-rule="evenodd" clip-rule="evenodd" d="M26.8894 7.21961C28.0361 7.52769 28.9433 8.43485 29.2514 9.58161C29.8162 11.6698 29.8333 16.0001 29.8333 16.0001C29.8333 16.0001 29.8333 20.3476 29.2685 22.4186C28.9604 23.5654 28.0533 24.4725 26.9065 24.7806C24.8355 25.3454 16.5 25.3454 16.5 25.3454C16.5 25.3454 8.16452 25.3454 6.09349 24.7806C4.94672 24.4725 4.03957 23.5654 3.73148 22.4186C3.16666 20.3304 3.16666 16.0001 3.16666 16.0001C3.16666 16.0001 3.16666 11.6698 3.71437 9.59873C4.02245 8.45196 4.9296 7.54482 6.07637 7.23673C8.1474 6.6719 16.4829 6.65479 16.4829 6.65479C16.4829 6.65479 24.8183 6.65479 26.8894 7.21961ZM20.7447 16.0001L13.8299 20.0052V11.995L20.7447 16.0001Z" fill="#F2F5F9"/>
</svg>
