<svg width="33" height="32" viewBox="0 0 33 32" fill="none" xmlns="http://www.w3.org/2000/svg">
<path d="M28.5 5.76471V26.2353C28.5 26.7033 28.3141 27.1522 27.9831 27.4831C27.6522 27.8141 27.2033 28 26.7353 28H6.26471C5.79668 28 5.34782 27.8141 5.01687 27.4831C4.68592 27.1522 4.5 26.7033 4.5 26.2353V5.76471C4.5 5.29668 4.68592 4.84782 5.01687 4.51687C5.34782 4.18592 5.79668 4 6.26471 4H26.7353C27.2033 4 27.6522 4.18592 27.9831 4.51687C28.3141 4.84782 28.5 5.29668 28.5 5.76471ZM11.5588 13.1765H8.02941V24.4706H11.5588V13.1765ZM11.8765 9.29412C11.8783 9.02715 11.8276 8.76242 11.7271 8.51506C11.6267 8.2677 11.4785 8.04255 11.291 7.85246C11.1036 7.66237 10.8805 7.51107 10.6346 7.4072C10.3886 7.30332 10.1246 7.24891 9.85765 7.24706H9.79412C9.2512 7.24706 8.73053 7.46273 8.34663 7.84663C7.96273 8.23053 7.74706 8.7512 7.74706 9.29412C7.74706 9.83703 7.96273 10.3577 8.34663 10.7416C8.73053 11.1255 9.2512 11.3412 9.79412 11.3412C10.0611 11.3477 10.3268 11.3016 10.5759 11.2055C10.8251 11.1094 11.0529 10.9651 11.2463 10.7809C11.4396 10.5967 11.5948 10.3762 11.703 10.132C11.8111 9.88775 11.8701 9.62464 11.8765 9.35765V9.29412ZM24.9706 17.6094C24.9706 14.2141 22.8106 12.8941 20.6647 12.8941C19.9621 12.8589 19.2626 13.0086 18.6358 13.3281C18.0091 13.6477 17.4771 14.126 17.0929 14.7153H16.9941V13.1765H13.6765V24.4706H17.2059V18.4635C17.1549 17.8483 17.3487 17.2378 17.7452 16.7646C18.1417 16.2915 18.7089 15.9939 19.3235 15.9365H19.4576C20.58 15.9365 21.4129 16.6424 21.4129 18.4212V24.4706H24.9424L24.9706 17.6094Z" fill="#F2F5F9"/>
</svg>
