<svg width="33" height="32" viewBox="0 0 33 32" fill="none" xmlns="http://www.w3.org/2000/svg">
<path fill-rule="evenodd" clip-rule="evenodd" d="M16.5 4C13.2408 4 12.8328 4.0136 11.5528 4.072C10.2752 4.1304 9.4024 4.3336 8.6392 4.6304C7.8392 4.9312 7.1136 5.4032 6.5136 6.0144C5.90338 6.61371 5.43109 7.3388 5.1296 8.1392C4.8344 8.9024 4.6304 9.776 4.572 11.0536C4.5144 12.3328 4.5 12.74 4.5 16C4.5 19.26 4.5136 19.6672 4.572 20.9472C4.6304 22.2248 4.8336 23.0976 5.1304 23.8608C5.4312 24.6608 5.9032 25.3864 6.5144 25.9864C7.11372 26.5966 7.83881 27.0689 8.6392 27.3704C9.4024 27.6664 10.2752 27.8696 11.5528 27.928C12.8328 27.9864 13.2408 28 16.5 28C19.7592 28 20.1672 27.9864 21.4472 27.928C22.7248 27.8696 23.5976 27.6664 24.3608 27.3696C25.1608 27.0688 25.8864 26.5968 26.4864 25.9856C27.0966 25.3863 27.5689 24.6612 27.8704 23.8608C28.1664 23.0976 28.3696 22.2248 28.428 20.9472C28.4864 19.6672 28.5 19.2592 28.5 16C28.5 12.7408 28.4864 12.3328 28.428 11.0528C28.3696 9.7752 28.1664 8.9024 27.8696 8.1392C27.5683 7.33845 27.096 6.61306 26.4856 6.0136C25.8863 5.40338 25.1612 4.93109 24.3608 4.6296C23.5976 4.3344 22.724 4.1304 21.4464 4.072C20.1672 4.0144 19.76 4 16.5 4ZM16.5 6.1624C19.704 6.1624 20.084 6.1744 21.3496 6.232C22.5192 6.2856 23.1544 6.48 23.5776 6.6456C24.1376 6.8624 24.5376 7.1232 24.9576 7.5424C25.3776 7.9624 25.6376 8.3624 25.8544 8.9224C26.0192 9.3456 26.2144 9.9808 26.268 11.1504C26.3256 12.416 26.3376 12.796 26.3376 16C26.3376 19.204 26.3256 19.584 26.268 20.8496C26.2144 22.0192 26.02 22.6544 25.8544 23.0776C25.6623 23.5988 25.3559 24.0704 24.9576 24.4576C24.5705 24.856 24.0989 25.1624 23.5776 25.3544C23.1544 25.5192 22.5192 25.7144 21.3496 25.768C20.084 25.8256 19.7048 25.8376 16.5 25.8376C13.2952 25.8376 12.916 25.8256 11.6504 25.768C10.4808 25.7144 9.8456 25.52 9.4224 25.3544C8.90116 25.1623 8.42961 24.8559 8.0424 24.4576C7.64414 24.0704 7.3377 23.5988 7.1456 23.0776C6.9808 22.6544 6.7856 22.0192 6.732 20.8496C6.6744 19.584 6.6624 19.204 6.6624 16C6.6624 12.796 6.6744 12.416 6.732 11.1504C6.7856 9.9808 6.98 9.3456 7.1456 8.9224C7.3624 8.3624 7.6232 7.9624 8.0424 7.5424C8.42955 7.14404 8.90113 6.83758 9.4224 6.6456C9.8456 6.4808 10.4808 6.2856 11.6504 6.232C12.916 6.1744 13.296 6.1624 16.5 6.1624Z" fill="#F2F5F9"/>
<path fill-rule="evenodd" clip-rule="evenodd" d="M16.5 20.0042C15.9742 20.0042 15.4535 19.9006 14.9677 19.6994C14.4819 19.4982 14.0406 19.2033 13.6687 18.8315C13.2969 18.4597 13.002 18.0183 12.8008 17.5325C12.5996 17.0467 12.496 16.526 12.496 16.0002C12.496 15.4744 12.5996 14.9537 12.8008 14.4679C13.002 13.9822 13.2969 13.5408 13.6687 13.169C14.0406 12.7971 14.4819 12.5022 14.9677 12.301C15.4535 12.0998 15.9742 11.9962 16.5 11.9962C17.5619 11.9962 18.5804 12.4181 19.3313 13.169C20.0821 13.9198 20.504 14.9383 20.504 16.0002C20.504 17.0621 20.0821 18.0806 19.3313 18.8315C18.5804 19.5824 17.5619 20.0042 16.5 20.0042ZM16.5 9.83221C14.8641 9.83221 13.2953 10.482 12.1386 11.6388C10.9818 12.7955 10.332 14.3644 10.332 16.0002C10.332 17.6361 10.9818 19.2049 12.1386 20.3616C13.2953 21.5184 14.8641 22.1682 16.5 22.1682C18.1359 22.1682 19.7047 21.5184 20.8614 20.3616C22.0182 19.2049 22.668 17.6361 22.668 16.0002C22.668 14.3644 22.0182 12.7955 20.8614 11.6388C19.7047 10.482 18.1359 9.83221 16.5 9.83221ZM24.4624 9.72021C24.4624 10.1069 24.3088 10.4777 24.0354 10.7512C23.7619 11.0246 23.3911 11.1782 23.0044 11.1782C22.6177 11.1782 22.2469 11.0246 21.9734 10.7512C21.7 10.4777 21.5464 10.1069 21.5464 9.72021C21.5464 9.33352 21.7 8.96267 21.9734 8.68925C22.2469 8.41582 22.6177 8.26221 23.0044 8.26221C23.3911 8.26221 23.7619 8.41582 24.0354 8.68925C24.3088 8.96267 24.4624 9.33352 24.4624 9.72021Z" fill="#F2F5F9"/>
</svg>
