<svg width="24" height="24" viewBox="0 0 24 24" fill="none" xmlns="http://www.w3.org/2000/svg">
<path d="M13.4142 9.9996L12 8.58539L10.5858 9.9996L12 11.4138L13.4142 9.9996Z" fill="#242E49"/>
<path fill-rule="evenodd" clip-rule="evenodd" d="M14.8285 3.41376C13.2664 1.85167 10.7337 1.85166 9.17161 3.41376L5.41425 7.17112C3.85215 8.73322 3.85215 11.2659 5.41425 12.828L9.17161 16.5853C10.7337 18.1474 13.2664 18.1474 14.8285 16.5853L18.5858 12.828C20.1479 11.2659 20.1479 8.73322 18.5858 7.17112L14.8285 3.41376ZM10.5858 7.17117C11.3668 6.39012 12.6332 6.39012 13.4142 7.17117L14.8284 8.58539C15.6095 9.36644 15.6095 10.6328 14.8284 11.4138L13.4142 12.828C12.6332 13.6091 11.3668 13.6091 10.5858 12.828L9.17157 11.4138C8.39052 10.6328 8.39052 9.36644 9.17157 8.58539L10.5858 7.17117Z" fill="#242E49"/>
<path d="M5 19.9995V21.9995H19V19.9995H5Z" fill="#242E49"/>
</svg>
