<svg width="16" height="19" viewBox="0 0 16 19" fill="none" xmlns="http://www.w3.org/2000/svg">
<path fill-rule="evenodd" clip-rule="evenodd" d="M0 3.5C0 4.70948 0.85888 5.71836 2 5.94999V15C2 17.2091 3.79086 19 6 19H10C12.2091 19 14 17.2091 14 15V5.94999C15.1411 5.71836 16 4.70948 16 3.5V2.5C16 1.11929 14.8807 0 13.5 0H2.5C1.11929 0 0 1.11929 0 2.5V3.5ZM3 4H2.5C2.22386 4 2 3.77614 2 3.5V2.5C2 2.22386 2.22386 2 2.5 2H3V4ZM9 4H11V2H9V4ZM7 4V2H5V4H7ZM13.5 4H13V2H13.5C13.7761 2 14 2.22386 14 2.5V3.5C14 3.77614 13.7761 4 13.5 4ZM7 10V8H9V10H11V12H9V14H7V12H5V10H7Z" fill="#0F67FE"/>
</svg>
