<svg width="20" height="18" viewBox="0 0 20 18" fill="none" xmlns="http://www.w3.org/2000/svg">
<path d="M1.96803 0.553819C2.56355 0.201929 3.25819 0 4 0H16C16.7418 0 17.4365 0.201929 18.032 0.553819L11.4142 7.17157C10.6332 7.95262 9.36683 7.95262 8.58579 7.17157L1.96803 0.553819Z" fill="#242E49"/>
<path d="M0.553819 1.96803C0.201929 2.56355 0 3.25819 0 4V14C0 16.2091 1.79086 18 4 18H16C18.2091 18 20 16.2091 20 14V4C20 3.25819 19.7981 2.56355 19.4462 1.96803L12.8284 8.58579C11.2663 10.1479 8.73367 10.1479 7.17157 8.58579L0.553819 1.96803Z" fill="#242E49"/>
</svg>
