<svg width="19" height="20" viewBox="0 0 19 20" fill="none" xmlns="http://www.w3.org/2000/svg">
<path fill-rule="evenodd" clip-rule="evenodd" d="M0 2.5C0 1.11929 1.11929 0 2.5 0H4V2H2.5C2.22386 2 2 2.22386 2 2.5V9.5C2 9.77614 2.22386 10 2.5 10H9.5C9.77614 10 10 9.77614 10 9.5V2.5C10 2.22386 9.77614 2 9.5 2H8V0H9.5C10.8807 0 12 1.11929 12 2.5V9.5C12 10.8807 10.8807 12 9.5 12H7V16C7 17.1046 7.89543 18 9 18H13C14.1046 18 15 17.1046 15 16V9.94999C13.8589 9.71836 13 8.70948 13 7.5V6.5C13 5.11929 14.1193 4 15.5 4H16.5C17.8807 4 19 5.11929 19 6.5V7.5C19 8.70948 18.1411 9.71836 17 9.94999V16C17 18.2091 15.2091 20 13 20H9C6.79086 20 5 18.2091 5 16V12H2.5C1.11929 12 0 10.8807 0 9.5V2.5ZM15 6.5C15 6.22386 15.2239 6 15.5 6H16.5C16.7761 6 17 6.22386 17 6.5V7.5C17 7.77614 16.7761 8 16.5 8H15.5C15.2239 8 15 7.77614 15 7.5V6.5Z" fill="#0F67FE"/>
</svg>
